HIERARCHY
ROOT Hips
{
	OFFSET	0.00	0.00	0.00
	CHANNELS 6 Xposition Yposition Zposition Zrotation Xrotation Yrotation
	JOINT Spine
	{
		OFFSET	 0.00	0.01	 0.00
		CHANNELS 3 Zrotation Xrotation Yrotation
		JOINT Spine1
		{
			OFFSET	 0.00	 2.45913012437421	 0.00
			CHANNELS 3 Zrotation Xrotation Yrotation
            JOINT Neck
            {
                OFFSET	 0.00	 2.48462964506057	 0.00
                CHANNELS 3 Zrotation Xrotation Yrotation
                JOINT Head
                {
                    OFFSET	 0.00	 0.927524780924562	 0.00
                    CHANNELS 3 Zrotation Xrotation Yrotation
                    End Site 
                    {
                        OFFSET	 0.00	 1.14999962169752	 0.00
                    }
                }
            }
			JOINT LeftShoulder
			{
				OFFSET	 0.00	 2.48462964506057	 0.00
				CHANNELS 3 Zrotation Xrotation Yrotation
				JOINT LeftUpArm
				{
					OFFSET	 0.00	 1.24881979654096	 0.00
					CHANNELS 3 Zrotation Xrotation Yrotation
					JOINT LeftForeArm
					{
						OFFSET	 0.00	2.59758046908119	 0.00
						CHANNELS 3 Zrotation Xrotation Yrotation
						JOINT LeftHand
						{
							OFFSET	 0.00	2.45542024364365	 0.00
							CHANNELS 3 Zrotation Xrotation Yrotation
							JOINT LeftHandThumb 
							{
								OFFSET	 0.00	0.00	 0.00
								CHANNELS 3 Zrotation Xrotation Yrotation
								End Site
								{
									OFFSET	 0.00	0.00	1.00000003353624
								}
							}
							JOINT L_Wrist_End 
							{
								OFFSET	 0.00	0.99999967115358	 0.00
								CHANNELS 3 Zrotation Xrotation Yrotation
								End Site 
								{
									OFFSET	 0.00	 0.00	 0.00
								}
							}
						}
					}
				}
			}
			JOINT RightShoulder
			{
				OFFSET	 0.00	 2.48462964506057	 0.00
				CHANNELS 3 Zrotation Xrotation Yrotation
				JOINT RightUpArm
				{
					OFFSET	 0.00	 1.24881979654096	 0.00
					CHANNELS 3 Zrotation Xrotation Yrotation
					JOINT RightForeArm
					{
						OFFSET	 0.00	2.59758046908119	 0.00
						CHANNELS 3 Zrotation Xrotation Yrotation
						JOINT RightHand
						{
							OFFSET	 0.00	2.45542024364365	 0.00
							CHANNELS 3 Zrotation Xrotation Yrotation
							JOINT RightHandThumb 
							{
								OFFSET	 0.00	0.00	 0.00
								CHANNELS 3 Zrotation Xrotation Yrotation
								End Site
								{
									OFFSET	 0.00	0.00	1.00000003353624
								}
							}
							JOINT R_Wrist_End 
							{
								OFFSET	 0.00	0.99999967115358	 0.00
								CHANNELS 3 Zrotation Xrotation Yrotation
								End Site 
								{
									OFFSET	 0.00	 0.00	 0.00
								}
							}
						}
					}
				}
			}
		}
	}
	JOINT LeftUpLeg
	{
		OFFSET	 1.2719394002717	 0.00	 0.00
		CHANNELS 3 Zrotation Xrotation Yrotation
		JOINT LeftLowLeg
		{
			OFFSET	 0.00	-4.3429100912261	 0.00
			CHANNELS 3 Zrotation Xrotation Yrotation
			JOINT LeftFoot
			{
				OFFSET	 0.00	-4.48767017425826	 0.00
				CHANNELS 3 Zrotation Xrotation Yrotation
				JOINT LeftToeBase
                {
                    OFFSET	 0.00	0.00	 1.51507020887566
                    CHANNELS 3 Zrotation Xrotation Yrotation
                    End Site 
                    {
                        OFFSET	 0.00	0.00	 0.75000010571191
                    }
                }
			}
		}
	}
	JOINT RightUpLeg
	{
		OFFSET	 -1.2719393604653	 0.00	 0.00
		CHANNELS 3 Zrotation Xrotation Yrotation
		JOINT RightLowLeg
		{
			OFFSET	 0.00	-4.3429100912261	 0.00
			CHANNELS 3 Zrotation Xrotation Yrotation
			JOINT RightFoot
			{
				OFFSET	 0.00	-4.48767017425826	 0.00
				CHANNELS 3 Zrotation Xrotation Yrotation
				JOINT RightToeBase
                {
                    OFFSET	 0.00	0.00	 1.51507020887566
                    CHANNELS 3 Zrotation Xrotation Yrotation
                    End Site 
                    {
                        OFFSET	 0.00	0.00	 0.749999965609858
                    }
                }   
			}
		}
	}
}
MOTION 
Frames:	15 
Frame Time: 0.02 
  3.0429501342773437 2.399100036621094 1.1358599853515625 -112.93 23.5126 -315.546 6.00339 14.9493 -22.1449 9.24698 30.6437 30.4154 73.383 52.4827 -111.436 69.0525 -54.8497 38.3693 -104.9593 2.66679 -4.05697 -52.8625 -75.8388 13.4763 0.0 61.8252 0.0 102.292 -7.86597 -3.85611 0.0 0.0 0.0 0.0 0.0 0.0 109.8985 -8.19648 1.74069 -3.09149 -2.45644 44.5459 0.0 31.225 0.0 -23.2126 -8.82493 -9.21347 0.0 0.0 0.0 0.0 0.0 0.0 64.9593 -66.2402 69.9568 0.0 66.0552 0.0 11.5539 12.63004 24.3277 0.0 -31.1058 0.0 -41.1058 -72.5052 -57.182 0.0 132.513 0.0 35.7268 26.9889 18.2703 0.0 -18.48565 0.0 
  3.0383200073242187 2.4044900512695313 1.1333200073242187 -112.845 23.7663 -315.7 6.2188 14.6567 -22.229 8.50502 30.8137 30.1247 72.9365 53.0216 -110.688 68.5375 -54.7999 37.6795 -104.7382 2.27308 -4.63773 -52.2272 -75.8816 13.9832 0.0 61.6202 0.0 102.05 -7.92926 -3.85067 0.0 0.0 0.0 0.0 0.0 0.0 109.9382 -8.26224 1.964 -0.395603 -6.26277 40.7822 0.0 28.4219 0.0 -22.3763 -10.2621 -7.96198 0.0 0.0 0.0 0.0 0.0 0.0 65.0203 -66.3054 70.0497 0.0 66.0644 0.0 11.396 12.68898 24.4257 0.0 -31.0636 0.0 -41.6275 -72.7445 -57.6087 0.0 132.663 0.0 35.4841 26.7376 18.0994 0.0 -18.57205 0.0 
  3.0339700317382814 2.4097500610351563 1.1307199859619141 -112.695 24.0971 -315.875 6.38067 14.55 -22.2516 7.91208 30.6123 29.9956 73.1702 53.1046 -110.804 68.5154 -54.7614 37.7992 -104.7172 2.06442 -5.17939 -50.8358 -76.0735 14.9288 0.0 61.441 0.0 101.688 -7.9367 -3.94825 0.0 0.0 0.0 0.0 0.0 0.0 110.1935 -8.81019 1.86744 2.32678 -9.64461 35.9474 0.0 25.7383 0.0 -21.2191 -11.4619 -5.41011 0.0 0.0 0.0 0.0 0.0 0.0 64.8339 -66.3999 69.968 0.0 65.99 0.0 11.3081 12.791121 24.614 0.0 -31.0028 0.0 -42.6129 -72.9491 -58.4772 0.0 132.854 0.0 35.086 26.457401 17.859 0.0 -18.68065 0.0 
  3.033169860839844 2.4178700256347656 1.1286199951171876 -112.572 24.4786 -316.085 6.38771 14.4705 -22.3219 7.75756 30.4542 29.8765 73.0407 53.5841 -110.47 68.4892 -54.9592 37.5277 -104.9166 2.00317 -5.47581 -49.6595 -76.1201 15.7884 0.0 61.1546 0.0 101.332 -8.09611 -3.93552 0.0 0.0 0.0 0.0 0.0 0.0 110.5748 -9.46869 1.36179 4.80729 -12.8854 30.2854 0.0 23.565 0.0 -18.6683 -11.179 -2.9175 0.0 0.0 0.0 0.0 0.0 0.0 64.6052 -66.4708 69.8448 0.0 65.7892 0.0 11.3251 12.97263 24.8551 0.0 -30.9247 0.0 -43.6386 -73.2344 -59.4468 0.0 132.996 0.0 34.861 26.1705 17.5702 0.0 -18.70197 0.0 
  3.032349853515625 2.425059967041016 1.1229399871826171 -112.339 24.7209 -316.44 6.50518 14.6795 -22.4689 7.63599 30.1497 29.7271 72.9951 54.2288 -110.186 68.8962 -55.3657 37.8067 -105.099396 1.74359 -5.61354 -48.2077 -75.9054 17.1946 0.0 60.7557 0.0 101.03 -8.44159 -3.97367 0.0 0.0 0.0 0.0 0.0 0.0 110.7672 -10.2182 0.913621 7.85971 -15.3451 26.9791 0.0 21.7115 0.0 -15.9771 -11.3792 -3.76909 0.0 0.0 0.0 0.0 0.0 0.0 64.1519 -66.4825 69.3382 0.0 65.6101 0.0 11.2651 13.32646 25.2123 0.0 -30.9074 0.0 -44.4551 -73.3469 -60.2953 0.0 133.143 0.0 34.5365 25.8053 17.1343 0.0 -18.42131 0.0 
  3.0356399536132814 2.434109954833984 1.114189987182617 -112.146 25.1258 -316.845 6.58956 14.5753 -22.6768 7.45861 30.1179 29.4494 72.2484 55.3186 -109.058 68.8282 -55.8381 37.7476 -105.2828 1.69618 -6.02629 -46.6724 -76.0122 18.9897 0.0 60.3532 0.0 100.734 -9.00242 -3.93523 0.0 0.0 0.0 0.0 0.0 0.0 110.8784 -10.8573 1.03192 10.8397 -17.7077 22.4052 0.0 20.9338 0.0 -14.1141 -14.5409 -1.77201 0.0 0.0 0.0 0.0 0.0 0.0 63.8319 -66.5259 69.0331 0.0 65.3716 0.0 11.1722 13.78835 25.5231 0.0 -30.7689 0.0 -45.9868 -73.555 -61.8161 0.0 133.251 0.0 34.1644 25.6245 16.6874 0.0 -18.47944 0.0 
  3.0358401489257814 2.4411700439453123 1.1003099822998046 -111.735 25.3041 -317.395 6.99167 14.6616 -22.9782 6.78002 29.9285 29.0455 71.5727 56.5613 -107.792 68.4976 -56.1187 38.2544 -105.2767 1.51782 -6.45092 -44.8421 -76.2076 21.2097 0.0 60.127 0.0 100.554 -9.76572 -3.82586 0.0 0.0 0.0 0.0 0.0 0.0 110.6932 -11.2682 1.11185 14.5238 -20.0268 16.9897 0.0 20.6747 0.0 -14.6587 -16.947 2.24067 0.0 0.0 0.0 0.0 0.0 0.0 62.9534 -66.4595 68.0598 0.0 65.1599 0.0 10.9487 14.062047 25.9376 0.0 -30.759499 0.0 -47.1767 -73.5237 -63.0459 0.0 133.407 0.0 33.8545 25.4379 16.1346 0.0 -18.41217 0.0 
  3.0376400756835937 2.4470899963378905 1.0871299743652343 -111.294 25.5312 -318.16 7.46849 14.5854 -23.1935 5.78757 29.875 28.672 70.7621 58.1343 -106.111 68.2886 -56.2997 39.4589 -105.3366 1.20779 -6.84211 -42.5085 -76.2559 23.8707 0.0 60.1419 0.0 100.354 -10.5767 -3.54094 0.0 0.0 0.0 0.0 0.0 0.0 110.3344 -11.3438 1.32699 18.3698 -22.9371 11.2787 0.0 21.8031 0.0 -13.3713 -19.4356 7.69684 0.0 0.0 0.0 0.0 0.0 0.0 62.2851 -66.3272 67.1625 0.0 65.1214 0.0 10.5222 14.28372 26.3976 0.0 -30.7206 0.0 -48.2712 -73.615 -64.1726 0.0 133.567 0.0 32.8808 25.029701 15.3146 0.0 -17.84568 0.0 
  3.0391400146484373 2.4571299743652344 1.0742900085449218 -110.642 25.7687 -319.052 7.81308 14.5735 -23.3982 4.88868 29.8524 28.2465 68.3615 61.1437 -101.877 67.5975 -56.281 39.1915 -105.3752 0.834343 -7.24429 -40.1826 -76.286 26.3364 0.0 60.3291 0.0 99.8794 -11.333 -3.17402 0.0 0.0 0.0 0.0 0.0 0.0 109.9251 -11.6616 1.17492 22.1698 -25.8133 6.18066 0.0 24.4194 0.0 -11.6748 -21.1305 12.7494 0.0 0.0 0.0 0.0 0.0 0.0 61.1898 -66.0305 66.0321 0.0 64.9858 0.0 10.0584 14.241221 26.8066 0.0 -30.8528 0.0 -49.5728 -73.6678 -65.5429 0.0 133.728 0.0 32.0082 24.71796 14.2929 0.0 -17.5133 0.0 
  3.0417098999023438 2.471029968261719 1.0619000244140624 -109.908 26.061 -320.01 7.97903 14.6122 -23.5975 4.30758 29.7729 27.8351 66.463 63.6816 -98.5057 67.2391 -56.5105 40.5461 -105.520096 0.606674 -7.4657 -38.5297 -76.2686 27.9931 0.0 60.3351 0.0 99.3996 -11.7648 -2.87101 0.0 0.0 0.0 0.0 0.0 0.0 109.6229 -12.262 1.47727 25.2533 -28.7176 1.87188 0.0 27.8471 0.0 -10.8614 -21.6813 16.0176 0.0 0.0 0.0 0.0 0.0 0.0 59.9119 -65.7057 64.7389 0.0 64.7647 0.0 9.29313 13.94628 27.2536 0.0 -30.859901 0.0 -51.1334 -73.7703 -67.1176 0.0 133.903 0.0 30.8983 24.47874 13.1967 0.0 -17.32531 0.0 
  3.045570068359375 2.4873199462890625 1.0519499969482422 -109.179 26.2985 -320.97 8.24687 14.4369 -23.8959 3.53226 29.978 27.2953 63.8599 66.2387 -94.4475 66.7489 -56.8195 42.6573 -105.5127 0.404667 -7.78819 -37.7823 -76.3037 28.8201 0.0 60.268 0.0 98.9116 -12.2019 -2.48092 0.0 0.0 0.0 0.0 0.0 0.0 109.3052 -12.7054 1.75243 28.2187 -31.3612 -1.63079 0.0 31.833 0.0 -12.8638 -22.7105 17.4962 0.0 0.0 0.0 0.0 0.0 0.0 58.6774 -65.3742 63.4151 0.0 64.582 0.0 8.41542 13.56551 27.72 0.0 -30.820301 0.0 -52.5187 -73.7664 -68.5827 0.0 134.002 0.0 30.0887 24.591309 12.2642 0.0 -17.85396 0.0 
  3.0489898681640626 2.505240020751953 1.0437699890136718 -108.404 26.527 -321.94 8.47889 14.3184 -24.2528 2.88946 29.9896 26.7093 63.1686 68.2994 -92.8288 66.9796 -57.6203 46.8236 -105.5731 0.178758 -8.06822 -36.0798 -76.3786 30.7395 0.0 60.3254 0.0 98.4753 -12.9357 -1.99346 0.0 0.0 0.0 0.0 0.0 0.0 109.0764 -13.184 2.1116 30.5097 -33.827 -5.61346 0.0 36.0661 0.0 -17.1424 -24.0599 17.7921 0.0 0.0 0.0 0.0 0.0 0.0 57.3857 -65.0825 61.9519 0.0 64.4686 0.0 7.36957 13.0217495 28.2 0.0 -30.8511 0.0 -53.7527 -73.7045 -69.8499 0.0 134.106 0.0 29.0656 24.56326 11.4418 0.0 -18.0819 0.0 
  3.0527499389648436 2.5288099670410156 1.0406500244140624 -107.671 26.7895 -322.838 8.62247 13.8414 -24.6368 2.20772 30.4419 26.0576 59.6966 70.86 -87.9907 66.3503 -58.186 48.7223 -105.6411 0.0789177 -8.2696 -34.2758 -76.3264 33.1771 0.0 60.4984 0.0 98.1826 -14.0893 -1.45124 0.0 0.0 0.0 0.0 0.0 0.0 108.6881 -13.3734 2.12353 33.1785 -35.9059 -8.12569 0.0 40.0985 0.0 -22.0908 -25.0028 16.9263 0.0 0.0 0.0 0.0 0.0 0.0 56.2824 -64.8614 60.6504 0.0 64.4164 0.0 6.42757 12.338181 28.6294 0.0 -30.868301 0.0 -54.6937 -73.6302 -70.8768 0.0 134.179 0.0 28.2002 24.38994 10.8264 0.0 -18.00584 0.0 
  3.055539855957031 2.558419952392578 1.0400199890136719 -106.861 27.0858 -323.668 9.0464 13.3574 -25.1182 0.860676 30.4822 25.1606 56.0592 73.5908 -82.7951 65.9561 -58.6343 50.3234 -105.3709 -0.39413 -8.64327 -31.4358 -76.2002 36.8175 0.0 60.668 0.0 98.0175 -15.4068 -0.820448 0.0 0.0 0.0 0.0 0.0 0.0 108.7289 -13.1833 1.95823 36.0198 -37.5488 -9.43843 0.0 43.598 0.0 -26.9599 -25.6647 15.3578 0.0 0.0 0.0 0.0 0.0 0.0 55.1275 -64.7553 59.3864 0.0 64.4599 0.0 6.07211 11.50058 28.9191 0.0 -30.452301 0.0 -55.4491 -73.5018 -71.6855 0.0 134.279 0.0 27.917 24.0304 10.3006 0.0 -17.74209 0.0 
  3.0588198852539064 2.5913900756835937 1.0412999725341796 -105.961 27.4957 -324.569 9.09554 12.9654 -25.4608 0.0210097 30.3715 24.4137 52.5534 75.8208 -78.0305 65.3683 -59.0011 51.0594 -105.3613 -0.538575 -8.61876 -28.8237 -75.9772 40.1924 0.0 60.8574 0.0 97.9496 -16.9184 -0.120905 0.0 0.0 0.0 0.0 0.0 0.0 108.4998 -13.3976 1.82343 39.1013 -38.6025 -9.93169 0.0 46.3194 0.0 -31.5621 -26.4448 13.8073 0.0 0.0 0.0 0.0 0.0 0.0 54.1362 -64.7034 58.4067 0.0 64.6794 0.0 5.58312 10.37111 28.7987 0.0 -30.199501 0.0 -55.9985 -73.4791 -72.1204 0.0 134.359 0.0 27.5013 23.55488 9.96995 0.0 -17.62128 0.0 
